<svg xmlns="http://www.w3.org/2000/svg" viewBox="0 0 234.5 445.75"><defs><style>.a{fill:#38393a;}.b{fill:#ff390b;}.c{fill:#f5f6f7;}.d{fill:#ea5e4f;}.e{fill:#ffc2b6;}.f{fill:#e6e6e6;}.g{fill:#2d415e;}.h{fill:#dd958c;}.i{fill:#ffdcd7;}.j{fill:#9aacb7;}.k{fill:#e48b6c;}.l{fill:#182535;}.m{fill:#292a2b;}.n{fill:rgba(229,49,49,0.57);}.o{fill:#ff557e;}.p{fill:#82959e;}.q{fill:#bbc1c4;}.r{fill:#fff;}.s{fill:#9da3a5;}.t{fill:#4d4d4d;}.u{opacity:0.11;}</style></defs><g transform="translate(-30.25 -44)"><path d="M161.1,435.9a2.346,2.346,0,0,1-2.343-2.343v-4.92l.009-.026c.067-1.207.578-7.2,4.114-11.787l-.211-3.31c-.518-8.1-1.639-25.672-2.09-32.63a100.215,100.215,0,0,1-11.265.743,53.023,53.023,0,0,1-11.258-1.12,30.529,30.529,0,0,0-3.471-.529c-.15,3.945-.742,13.067-2.377,36.855,3.586,4.654,4.054,10.739,4.109,11.8l.005.017,0,4.91a2.346,2.346,0,0,1-2.343,2.343H106a2.346,2.346,0,0,1-2.343-2.343v-4.874l.009-.032.024-.191c.01-.064,1.274-7.637,6.512-12.65V383.622a94.542,94.542,0,0,0-10.88,4.266A2.343,2.343,0,0,1,97.1,387.8a2.331,2.331,0,0,1-1.142-1.914c-.014-.341-1.387-34.408,2.857-59.871,2.638-15.826,5.363-37.332,5.873-41.4-.423-.6-.721-1.009-.909-1.234-2.32-2.785.039-7.934,2.869-12.267-15.3-2.063-24.107-4.608-26.909-7.771-3.332-3.757-1.368-16.471,1.547-32.7.624-3.481,1.477-8.228,1.437-9.093-.719-3.583,4.157-20.413,5.245-21.862.375-.5.943-1.258,31-17.031.029-2.477.219-6.243,1.048-8.177a5.88,5.88,0,0,1,2.461-2.736c-5.738-2.048-9.888-4.959-12.358-8.674-2.753-4.143-4.09-10.7-3.974-19.5-3.306-2.415-8.122-7.488-8.409-12.153a6.387,6.387,0,0,1,2.452-5.512,8.277,8.277,0,0,1,5.178-2.032,6.678,6.678,0,0,1,1.161.1,6.789,6.789,0,0,1,1.579.484c.655-3.749,1.28-6.533,1.553-7.7.435-3.529,2.041-14.95,5.075-20.17.007-.037.014-.076.024-.116.019-.075.37-1.445,1.014-3.387a13.952,13.952,0,0,1-5.291-1.526,10.162,10.162,0,0,1-5.22-5.932c-1.71-5.657-1.145-9.176,6.724-15.077,2-1.5,1.812-3.371.859-7.6-1-4.452-2.38-10.548,3.493-15.731A12.3,12.3,0,0,1,124.8,44c5.308,0,10.914,2.848,16.848,5.864a79.31,79.31,0,0,0,12.629,5.529,18.467,18.467,0,0,0,4.679-1.087A21.507,21.507,0,0,1,167.2,52.8c7.284,0,14.714,2.947,17.667,7.007a23.083,23.083,0,0,1,2.823,6.525c1.551,4.834,3.017,9.4,8.53,10.9,3.756,1.021,4.841,3.055,5.091,4.583.588,3.628-3.138,7.479-6.749,10.285a8.825,8.825,0,0,1,1.015,1.661c.754,1.741.062,4.113-1.851,6.343a13.391,13.391,0,0,1-10.184,4.607q-.42,0-.856-.027c1.355,4.742,2.881,10.581,3.151,11.618a25.851,25.851,0,0,1,1.311,5.3,9.654,9.654,0,0,1,3.749-.869,6.239,6.239,0,0,1,1.4.154,5.607,5.607,0,0,1,3.8,3.072c2.876,5.663-2.5,13.584-6.65,16.895,1.019,14.465-4.993,25.711-16.274,30.74a5.2,5.2,0,0,1,.958,1.1c1.06,1.621,1.49,4.807,1.659,7.473l13.626,3.9c1.19-.2,2.46-.366,3.851-.509v-3.116a6.735,6.735,0,1,1,13.47,0v2.908c37.2,2.858,47.134,33.156,49.157,41.418h.04a6.572,6.572,0,0,1,0,13.144H242.446a4.675,4.675,0,0,1-.309,2.335c-1.208,2.967-4.951,4.04-9.286,5.283l-.741.211a9.509,9.509,0,0,0-3.8,2.247,9.48,9.48,0,0,1-6.853,2.829,14.755,14.755,0,0,1-1.889-.13c-1.513,2.547-5.783,7.867-15,7.867-.715,0-1.46-.033-2.217-.1-8.95-.785-14.2-5.149-16.774-8.118a99.027,99.027,0,0,1-2.329,15.086c2.322,3.2,5.669,8.608,4.706,12.09a66.782,66.782,0,0,1-2.781,6.907c.619,6.67,5.006,53.015,8.935,68.075,4.421,16.947-1.748,32.389-2.014,33.039a2.351,2.351,0,0,1-1.62,1.391,2.324,2.324,0,0,1-2.074-.5h0a41.92,41.92,0,0,0-3.534-2.414v31.8c5.2,4.978,6.5,12.581,6.514,12.659l.03.179-.006.052.007.149v4.709a2.346,2.346,0,0,1-2.343,2.343ZM137.75,77.107m-.058-.008-.422-.057"/><path class="a" d="M132.716,427.677H107.468c.937-3.515,4.265-12.642,13.544-12.642.293,0,.574.012.855.023a10.012,10.012,0,0,1,7.041,3.281c.012.012.024.023.024.035C131.662,421.373,132.47,425.614,132.716,427.677Z"/><path class="b" d="M117.337,114.877a27.053,27.053,0,0,0-4.462,3.593c-.4,1.8-1.087,5.152-1.728,9.262,1.98-2.326,4.428-4.857,5.708-6.156Z"/><path class="b" d="M178.158,119.392c1.218.854,3.772,2.689,5.786,4.449a33.39,33.39,0,0,0-1.289-6.019,47.182,47.182,0,0,0-4.682-3.009Z"/><path class="c" d="M187.664,86.414c.316.305,2.027,1.922,3.679,3.691,3.175-2.308,6.807-5.812,6.49-7.733-.14-.914-1.464-1.464-2.542-1.757-7.346-1.992-9.349-8.213-10.954-13.216a20.805,20.805,0,0,0-2.32-5.53c-2.648-3.655-11.857-6.912-19.425-5.049a15.336,15.336,0,0,0-2.3.738c-8.236,3.4-27.52.621-28.341.5a1.172,1.172,0,1,1,.34-2.319,126.474,126.474,0,0,0,15.887,1.148C145.4,55.718,142.7,54.347,140.05,53c-8.494-4.323-15.828-8.049-21.393-3.14-4.312,3.8-3.374,7.944-2.39,12.314.914,4.018,1.851,8.166-2.179,11.189-6.936,5.2-6.69,7.205-5.46,11.247a6.663,6.663,0,0,0,3.48,3.831,9.674,9.674,0,0,0,6.279.984c1.313-3.14,3.117-6.455,5.308-8.178,4.651-3.655,12.243-5.4,12.559-5.471a.148.148,0,0,1,.071-.012h.011a1.162,1.162,0,0,1,1.23.656,1.3,1.3,0,0,1,.082.235,1.163,1.163,0,0,1-.878,1.406c-.071.011-7.4,1.7-11.634,5.026-1.922,1.5-3.55,4.663-4.745,7.627a1.3,1.3,0,0,1-.129.293c-.352.89-.668,1.757-.937,2.554a38.1,38.1,0,0,1,10.017-4.6,1.142,1.142,0,0,1,1.019.187,1.181,1.181,0,0,1-.387,2.074c-.023.011-1.218.351-2.87.984-2.659,1.019-6.526,2.8-8.67,5.19-2.355,2.624-4.112,11.669-4.956,17.375,3.222-2.59,9.736-6.76,20.222-9.022,9.783-2.108,20.972-1.511,31.188,1.278a61.654,61.654,0,0,1,16.789,7.275c-1.582-5.952-3.585-13.134-4.147-14.27-.668-1.066-7.03-3.632-16-5.424-2.121-.422-4.382-.809-6.749-1.113a1.181,1.181,0,0,1-1.031-1.195.392.392,0,0,1,.012-.118,1.157,1.157,0,0,1,1.312-1.007c8.236,1.078,17.8,3.5,22.214,5.893a42.493,42.493,0,0,0-2.145-8.143c-1.605-3.96-6.244-6.338-8.166-7.182a1.172,1.172,0,0,1,.949-2.144c2.18.949,7.464,3.691,9.385,8.448a42.967,42.967,0,0,1,2.636,11.727c.105.281.223.61.34.984.035.012.058,0,.094.012a10.21,10.21,0,0,0,10.4-2.648c1.348-1.429,1.664-2.683,1.57-2.976a11.386,11.386,0,0,0-1.57-2.155,1.106,1.106,0,0,1-1.007-1.125c-1.23-1.336-2.66-2.753-3.714-3.737a1.173,1.173,0,1,1,1.6-1.711Zm-36.73-9.619a1.156,1.156,0,0,1-1.019-.96,1.143,1.143,0,0,1-.012-.34,1.18,1.18,0,0,1,1.3-1.031c.117.023,2.858.34,5.647.878a1.17,1.17,0,0,1-.211,2.32,1.283,1.283,0,0,1-.223-.023c-.4-.07-.8-.152-1.2-.223C152.961,77.03,150.958,76.795,150.934,76.795Z"/><rect class="a" width="25.634" height="2.367" transform="translate(107.175 430.02)"/><path class="d" d="M135.377,193.217q1.188-.231,2.358-.453c.443-5.394-.14-10.362-1.3-10.662a99.741,99.741,0,0,1-11.006-4.351,1.169,1.169,0,0,1-.679-1.18l.21-2.136a2.9,2.9,0,0,0-1.714,1.428,6.669,6.669,0,0,0-.364,1.415c3.089,1.87,9.147,5.387,10.755,5.639C135.888,183.269,135.705,189.435,135.377,193.217Z"/><path class="c" d="M102.378,248.413c.948,1.871,8.269,19.98,9.848,23.892,1.062.027,3.2.076,6.06.119.741-12.041-4.824-38.439-8.186-54.379-1.581-7.5-2.724-12.917-2.786-14.663-.055-1.538-.157-4.4,24.725-9.5q1.069-.219,2.138-.43c.437-4.9.124-9.246-.722-9.379-1.888-.295-7.969-3.857-10.747-5.53a49.732,49.732,0,0,0-.226,5.508,1.172,1.172,0,0,1-.627,1.057c-11.634,6.1-29.251,15.456-31.115,16.759-.891,1.866-5.086,16.94-4.581,18.958.244.976-.171,3.493-1.417,10.436-1.692,9.424-4.842,26.967-2.376,29.749,1.022,1.152,5.556,4.079,25.479,6.714-3.139-7.741-6.941-17.036-7.558-18.253-.06-.119-4.805-10.72-4.564-17.2-3.1-1.186-6.678-5.494-7.115-6.031a1.172,1.172,0,1,1,1.819-1.478c1.359,1.671,3.867,4.233,5.695,5.144a4.778,4.778,0,0,1,.28-.668c2.054-3.913,1.272-11.565,1.263-11.642a1.172,1.172,0,0,1,2.33-.248c.037.343.867,8.434-1.518,12.979C96.627,233.848,101.027,245.75,102.378,248.413Z"/><path class="e" d="M185.836,139.769c-.492-4.862-.937-8.822-1.347-12.009-.68-1.277-5.143-4.71-8.143-6.772a1.165,1.165,0,0,1-.5-.914l-.14-3.526-.129-3c-12.22-6.092-28.13-8.365-41.381-5.506a50.479,50.479,0,0,0-14.4,5.331l-.632,8.8a1.206,1.206,0,0,1-.34.75c-3.667,3.7-7.78,8.3-8.342,9.584-1.23,10.04-1.593,22.354,2.566,28.622,2.355,3.538,6.666,6.08,12.1,7.779,10.767,3.4,25.951,3.515,39.062,1.629C179.264,168.355,187.547,156.569,185.836,139.769Zm-56.553-14.891c.153-.164,3.7-4.1,8.529-4.1h.141a8.387,8.387,0,0,1,7.217,3.89,1.172,1.172,0,1,1-2.05,1.136,6.076,6.076,0,0,0-5.2-2.683c-3.878-.035-6.854,3.281-6.877,3.316a1.206,1.206,0,0,1-.879.4,1.251,1.251,0,0,1-.785-.293A1.182,1.182,0,0,1,129.283,124.878Zm7.709,2.882c1.8,0,3.269,2.812,3.269,6.268s-1.464,6.256-3.269,6.256-3.268-2.8-3.268-6.256S135.188,127.76,136.992,127.76Zm1.535,15.605a1.179,1.179,0,0,1,1.652-.105c2.027,1.792,5.6,4.112,7.17,3.714,2.133-.562,5.155-3.011,6.139-3.913a1.182,1.182,0,0,1,1.664.082,1.169,1.169,0,0,1-.082,1.652c-.164.152-4,3.632-7.135,4.44a3.635,3.635,0,0,1-.949.117c-3.257,0-7.475-3.55-8.353-4.335A1.158,1.158,0,0,1,138.527,143.365Zm16.754-9.337c0-3.456,1.464-6.268,3.269-6.268s3.257,2.812,3.257,6.268-1.453,6.256-3.257,6.256S155.281,137.484,155.281,134.028Zm4.979-18.113c-.035,0-.058-.012-.082-.012-1.687,0-4.218,2.425-5.436,3.984a1.173,1.173,0,0,1-1.851-1.442c.41-.515,3.995-5.014,7.475-4.873,3.936.187,5.436,5.155,5.8,6.678a1.175,1.175,0,0,1-2.285.551C163.763,120.308,162.674,116.032,160.26,115.915Zm12.946,33.531a1.724,1.724,0,0,0-.129.363c-.5,1.547-1.394,3.07-6.115,3.14-4.909.07-27.31,4.511-32.711,5.823a16.65,16.65,0,0,1-3.96.492,10.774,10.774,0,0,1-5.19-1.125,1.171,1.171,0,0,1,1.195-2.015c.117.07,2.729,1.5,7.4.363,4.78-1.16,27.837-5.8,33.227-5.881,3.444-.047,3.69-.832,3.924-1.523a3.644,3.644,0,0,1,.258-.68,1.171,1.171,0,0,1,2.1,1.043Z"/><path class="e" d="M105.9,127.428a4.492,4.492,0,0,0-3.517,1.216,2.814,2.814,0,0,0-1.14,2.551c.182,2.957,3.546,6.76,6.19,8.923.2-3.819.62-7.578,1.105-10.946A4.583,4.583,0,0,0,105.9,127.428Z"/><path class="e" d="M192.951,125.548a2.121,2.121,0,0,0-1.445-1.238c-1.568-.36-3.792.835-4.9,1.577.393,2.9.836,6.667,1.351,11.6C191.084,134.6,194.623,128.84,192.951,125.548Z"/><path class="f" d="M203.21,184.354v-3.919a3.22,3.22,0,1,0-6.44,0v3.977q2.07-.119,4.247-.12C201.768,184.292,202.48,184.333,203.21,184.354Z"/><path class="d" d="M169.648,177.751a99.91,99.91,0,0,1-11.006,4.351c-1.491.384-1.7,5.306-1.273,8.561a1.172,1.172,0,0,1-.991,1.312c-21.725,3.2-45.768,8.465-46.728,11.379.061,1.488,1.244,7.1,2.743,14.207,3.591,17.029,8.962,42.5,8.241,54.894l1.692.017c.213-9.531-1.41-24.309-4.22-38.172-1.27-6.269-2.613-12.363-3.692-17.258-1.813-8.233-2.609-11.907-2.467-12.735.125-.732.336-1.957,24.057-6.74,10.213-2.059,20.5-3.9,22.81-4.309.061-3.333.4-10,2.123-10.674.233-.091.664-.221,1.228-.388a37,37,0,0,0,5.8-2.129,22.761,22.761,0,0,0,3.984-2.606,8.629,8.629,0,0,0-.773-2.846,1.48,1.48,0,0,0-1.112-.691l.261,2.647A1.172,1.172,0,0,1,169.648,177.751Z"/><path class="e" d="M167.911,175.959a86.856,86.856,0,0,1-9.853,3.878c-3.5.9-3.386,7.124-3.14,9.994-.469.07-1.078.164-1.8.281-2.882.445-7.65,1.23-12.993,2.214.282-4,.352-11.6-3.1-12.489a88.519,88.519,0,0,1-9.853-3.878l.187-1.874.2-2.062a84.761,84.761,0,0,0,19.6,2.05,125.205,125.205,0,0,0,17.4-1.218c1.031-.153,2.027-.352,3-.586Z"/><path class="f" d="M147.48,225.933H252.572c-1.53-6.962-10.39-37.436-48.1-39.2-.03,0-.056.017-.087.017a1.115,1.115,0,0,1-.115-.023c-1.066-.047-2.137-.089-3.25-.089C160.432,186.635,149.452,218.645,147.48,225.933Z"/><path class="g" d="M131.146,378.645c-.082,1.734-.3,5.4-.586,10.029-.492,7.651-1.183,17.926-1.757,26.42a11.426,11.426,0,0,0-2.847-1.547,13.81,13.81,0,0,0-4.944-.855,13.353,13.353,0,0,0-1.558.082,13.6,13.6,0,0,0-5.73,1.828V381.328A65.625,65.625,0,0,1,131.146,378.645Z"/><path class="c" d="M159.232,240.088a3.6,3.6,0,0,1,1.134-3.783H143.844a5.186,5.186,0,0,1,0-10.372h1.228c1.418-5.294,9.991-32.056,39.39-39.63l-11.271-3.223a1.174,1.174,0,0,1-.848-1.1c-.022-.921-.1-2.056-.215-3.168a23.033,23.033,0,0,1-3.637,2.3,37.9,37.9,0,0,1-5.991,2.2c-.522.155-.922.272-1.135.356-.69.39-1.328,5.009-1.386,10.083a.586.586,0,0,1-.484.57c-17.045,2.994-44.541,8.4-46.4,10.249-.02.943,1.133,6.178,2.462,12.213,1.081,4.9,2.424,11,3.7,17.276,2.823,13.931,4.454,28.8,4.243,38.416,15.681.122,42.521-.171,54.644-3.249,3.107-5.535,4.081-20.82,4.183-22.586-5.439-1.829-12.194-4.094-18.221-4.23C160.8,242.342,159.63,241.11,159.232,240.088Zm-42.278-31.955a4.276,4.276,0,1,1,4.276,4.276A4.281,4.281,0,0,1,116.954,208.133Zm4.756,22.945a4.276,4.276,0,1,1,4.276,4.277A4.281,4.281,0,0,1,121.71,231.078Zm7.218,28.908a4.276,4.276,0,1,1,4.276-4.276A4.281,4.281,0,0,1,128.928,259.986Z"/><path class="e" d="M235.772,235.315c-3.295-.593-8.54,1.074-11.694,3.713a10.514,10.514,0,0,1-9.753,2.25,12.989,12.989,0,0,0-1.876,2.166,1.172,1.172,0,0,1-2.009-1.206,15.026,15.026,0,0,1,2.293-2.683c1.765-1.776,3.59-3.612,3.223-6.3a2.158,2.158,0,0,0-1.676-1.864c-2.4-.821-6.044.241-6.723.913a17.345,17.345,0,0,0-1.521,2.183c-2.037,3.189-4.813,7.56-8.494,7.271-2.7-.213-3.449-2.15-4.115-3.86-.654-1.68-1.331-3.418-3.793-4.6a7.062,7.062,0,0,0-6.8.488c-1.048.673-1.391,1.309-1.414,1.5a1.161,1.161,0,0,1,.192.17A67.374,67.374,0,0,1,188.1,241.5a1.172,1.172,0,0,1-1.7,1.616,71.444,71.444,0,0,0-6.26-5.879c-6.567-2.834-12-2.417-15.329-1.06a.987.987,0,0,1-.12.052,8.279,8.279,0,0,0-2.509,1.561c-.668.641-.867,1.2-.77,1.451.113.291.817.793,2.74.836,6.4.144,13.37,2.487,18.967,4.37a49.464,49.464,0,0,0,7.91,2.265,16.343,16.343,0,0,0,5.515-.378,23.979,23.979,0,0,1,9.3-.258,35.481,35.481,0,0,0,7.031.559,35.632,35.632,0,0,1,6.776.509c3.561.559,4.742-.447,6.376-1.835a12.715,12.715,0,0,1,5.107-2.949l.74-.212c3.167-.907,6.441-1.845,7.005-3.231.072-.177.293-.72-.408-1.951A3.647,3.647,0,0,0,235.772,235.315Z"/><path class="c" d="M203.679,253.886q-.386,0-.779-.028a18.607,18.607,0,0,1-10.428-4.71,15.666,15.666,0,0,1-1.724-.114,17.06,17.06,0,0,1-1.928-.373,21.29,21.29,0,0,0,13.841,6.286c8.758.773,12.515-3.735,13.785-5.851-.9-.082-1.635-.113-2.3-.121C213.2,249.93,208.989,253.886,203.679,253.886Z"/><path class="f" d="M255.922,228.276H143.844a2.843,2.843,0,0,0,0,5.686h20.15c3.726-1.505,9.138-1.795,15.267.406a3.448,3.448,0,0,1,.262-.557c1.5-2.532,6.573-4.812,11.127-2.624a9.481,9.481,0,0,1,4.961,5.864c.658,1.691.945,2.281,2.116,2.373,2.274.212,4.812-3.811,6.335-6.195a16.669,16.669,0,0,1,1.848-2.589c1.519-1.5,6.124-2.49,9.125-1.465a4.53,4.53,0,0,1,3.243,3.767,7.886,7.886,0,0,1-2.073,6.323,8.312,8.312,0,0,0,6.37-2.033c3.738-3.13,9.585-4.945,13.612-4.224a6.6,6.6,0,0,1,3.079,1.382h16.656a3.057,3.057,0,1,0,0-6.114Z"/><path class="h" d="M210.555,248.946a43.722,43.722,0,0,1-5.076-.56,21.729,21.729,0,0,0-8.494.247c-.359.069-.725.135-1.093.2a15.2,15.2,0,0,0,7.182,2.689A11.753,11.753,0,0,0,210.555,248.946Z"/><rect class="a" width="25.634" height="2.367" transform="translate(162.264 430.02)"/><path class="a" d="M187.617,427.677H162.369c.387-3.386,2.3-12.642,11.693-12.642a12.322,12.322,0,0,1,4.311.738C184.5,418,186.855,424.748,187.617,427.677Z"/><path class="d" d="M189.363,382.758c-1.348-.938-3.878-2.59-8.272-5.132-3.948-2.273-10.169-1.523-17.386-.644-7.6.913-16.227,1.956-24.908.093-14.329-3.081-32.079,3.714-38.546,6.526-.3.141-.586.258-.843.375-.223-7.252-.774-35.488,2.87-57.385,1.886-11.329,3.808-25.388,4.956-34.128.258-2.062.48-3.831.656-5.2.058.082.117.164.176.258,3.514,5.248,8.693,12.993,12.43,16.449.258.234.516.457.762.656a1.124,1.124,0,0,0,.726.258,1.141,1.141,0,0,0,.914-.434,1.158,1.158,0,0,0-.176-1.64c-3.468-2.8-9.033-11.107-12.712-16.59-1.593-2.39-2.858-4.276-3.538-5.085-.586-.7.258-3.034,1.687-5.658.5-.926,1.078-1.875,1.687-2.812.164.422.34.843.493,1.23a1.189,1.189,0,0,0,1.054.738c.773.023,8.213.234,18.1.234,16.156,0,38.839-.574,49.711-3.491a1.194,1.194,0,0,0,.691-.5,13.52,13.52,0,0,0,1.172-2.437c1.991,2.929,3.925,6.6,3.5,8.131-.867,3.14-6.983,16.016-8.647,18.851a1.18,1.18,0,0,0,.422,1.6,1.2,1.2,0,0,0,.6.164,1.173,1.173,0,0,0,1.007-.586c.774-1.312,2.4-4.592,4.077-8.142,1.242,13,5.1,51.175,8.682,64.918C194.1,366.344,190.722,378.657,189.363,382.758Z"/><path class="g" d="M181.349,380.5V414.6a12.9,12.9,0,0,0-2.952-1.289,14.709,14.709,0,0,0-4.335-.621,14.278,14.278,0,0,0-3.738.468,11.65,11.65,0,0,0-4.042,1.922c-.328-5.143-1.113-17.48-1.7-26.572-.246-3.983-.468-7.346-.585-9.209,6.795-.82,12.653-1.523,15.922.364C180.423,379.958,180.9,380.227,181.349,380.5Z"/><path class="h" d="M139.037,144.1s4.759,5.052,8.347,4.32,7.872-4.467,7.872-4.467-3.4,9.519-7.139,10.435S139.037,144.1,139.037,144.1Z"/><path class="h" d="M139.183,162.87l22.407-4.491S150.265,166.483,139.183,162.87Z"/><path class="h" d="M167.911,175.959a86.856,86.856,0,0,1-9.853,3.878c-3.5.9-3.386,7.124-3.14,9.994-.469.07-1.078.164-1.8.281-.363-2.273-.937-5.893-1.2-6.69-.292-.96-18.112-7.123-24.568-9.337l.2-2.062a84.761,84.761,0,0,0,19.6,2.05,125.205,125.205,0,0,0,17.4-1.218c1.031-.153,2.027-.352,3-.586Z"/><path class="h" d="M137.792,181.262s3.295.11,4.467,1.465,0,9.922,0,9.922l-3.918,1.244S140.355,183.752,137.792,181.262Z"/><path class="h" d="M130.841,171.7c2.121.316,3.457.5,3.457.5A13.01,13.01,0,0,1,130.841,171.7Z"/><path class="h" d="M175.7,116.548c-8.272-3.433-29.05-9.072-51.31-1.444,0,0-10.785,23.7-6.977,40.587,1.546,6.865,4.628,10.872,7.732,13.215-5.436-1.7-9.747-4.241-12.1-7.779-4.159-6.268-3.8-18.582-2.566-28.622.562-1.289,4.675-5.882,8.342-9.584a1.206,1.206,0,0,0,.34-.75l.632-8.8a50.479,50.479,0,0,1,14.4-5.331c13.251-2.859,29.161-.586,41.381,5.506Z"/><path class="h" d="M186.438,128.65s1.952-2.392,3.124-2.148,1.538,1.733,1.538,1.733-1.416-.805-2.051.049.44,1.367.977,2.953-2.685,3.735-2.685,3.735"/><path class="h" d="M108.673,131.091s-1.953-2.392-3.124-2.148-1.538,1.733-1.538,1.733,1.416-.8,2.05.049-.439,1.367-.976,2.953,2.685,3.735,2.685,3.735"/><path class="h" d="M122.1,158.819s-.585-2.49.733-3.808a11.177,11.177,0,0,1,2.587-1.953s-2.929-.683-4,.586S121.268,158.282,122.1,158.819Z"/><path class="h" d="M168.986,146s3-1.171,4.686.513a4.867,4.867,0,0,1,1.684,3.075S176.894,141.684,168.986,146Z"/><path class="h" d="M180.531,244.443s3.515-.781,3.563-1.9.2-2.343.2-2.343,3.319,3.466,6.492,3.612,5.761-3.222,7.127-2.978,7.665,2.295,9.227,1.953,6.883-4.149,6.883-4.149.1,1.708,1.513,1.952,7.323-.83,7.323-.83a34.7,34.7,0,0,0-4.443,3.222c-1.708,1.563.391,2.49,3.076,2.148s8.64-4.344,10.349-4.052.879,1.856-.391,2.441-7.273,5.028-10.1,4.98-11.081-1.611-17.574-1.611-8.933,2.685-13.522,1.171S181.654,244.736,180.531,244.443Z"/><path class="i" d="M181.141,122.865s5.2,14.865,2.929,26.361a35.666,35.666,0,0,1-9.592,18.16s10.471-5.785,12.082-17.5-2.27-24.457-2.27-24.457Z"/><path class="i" d="M188.732,123.793a3.984,3.984,0,0,1,3.954,3.393c.513,3.417-3.319,9.153-3.319,9.153s6.175-7.42,5.491-9.446S191.636,122.524,188.732,123.793Z"/><path class="i" d="M234.082,234.435s4.2,1.66,3.613,3.906-5.126,4.1-5.126,4.1,7.664.049,7.713-2.929S235.742,234.289,234.082,234.435Z"/><path class="j" d="M168.107,180.64l1.684,2.709-2.709,6.81s4.759-2.27,6.37-2.124,10.325-.146,10.545-.146,3.661-1.9,3.661-1.9-13.449-3.563-13.986-4.1-1.123-3.491-1.123-3.491Z"/><path class="j" d="M108.523,202.461c-1.465,2.144,5.764,32.9,8.2,42.271s2.448,28.7,2.448,28.7L113.2,272.8l-2.331-.246L104.527,255.7,102,248.95c.023.011.093.047.187.1h.012c1.172.668,6.936,3.808,7.99,2.226a17.726,17.726,0,0,0,1.957-13.38c-.539-1.968-1.582-5.635-2.742-9.923-2.448-8.951-5.459-20.573-5.659-24.931-.292-6.444,31.141-12.209,31.141-12.209.785,1.371-.585,3.515-.585,3.515S109.987,200.317,108.523,202.461Z"/><path class="j" d="M121.06,180.64a28.094,28.094,0,0,0,2.636,5.309c1.135,1.391,1.684,2.452.842,2.452s-6.993-1.318-6.993-1.318S122.342,184.081,121.06,180.64Z"/><path class="j" d="M96.713,231.677s2.123-6,2.123-9.665S95.029,207,95.029,207s1.537,11.35-.44,13.473-7.469,3.295-7.469,3.295,6.517,11.57,5.712,14.938-5.492,14.5-4.174,16.256,17.135,6.151,17.135,6.151S96.347,233.581,96.713,231.677Z"/><path class="j" d="M183.411,250.789s-.762,5.952-1.8,11.329c-.8,4.089-1.758,7.838-2.683,8.389-.41.246-2.707.515-6.151.785-14.458,1.148-49.172,2.32-49.406,1.851-.293-.586-2.144-22.846-2.543-26.548-.375-3.6-2.038-12.044-2.132-12.571.07.058.328.316.75.749,3.831,3.8,21.264,20.468,34.234,22.026,12.3,1.476,24.908-3.76,28.634-5.483C183.024,250.988,183.411,250.789,183.411,250.789Z"/><path class="a" d="M121.23,206.2a1.933,1.933,0,1,0,1.932,1.933A1.935,1.935,0,0,0,121.23,206.2Z"/><path class="a" d="M127.919,231.078a1.933,1.933,0,1,0-1.933,1.933A1.936,1.936,0,0,0,127.919,231.078Z"/><path class="a" d="M128.928,253.778a1.932,1.932,0,1,0,1.933,1.932A1.935,1.935,0,0,0,128.928,253.778Z"/><path class="k" d="M184.782,275.3c-1.922.867-3.515,2.355-8.108,2.659-.562.047-1.183.071-1.851.071-6.057,0-30.661,2.144-40.033,1.956-5.272-.117-10.2-.375-13.169.7-2.3.832-3.409,2.484-2.554,5.636,1.956,7.228,16.6,32.511,29.489,33.495s29.29-27.145,29.29-27.145-.024.984-.106,2.694c-.55,10.58-3.667,49.113-20.256,57.069a14.637,14.637,0,0,1-6.585,1.452c-25.623-.292-37.339-22.846-39.986-19.179-2.625,3.656,15.968,28.845,42.482,28.986,0,0-9.818,5.576-25.342,1.757-15.524-3.8-7.322,11.576-2.929,11.576,0,0-21.241,5.412-22.694,6.3a29.511,29.511,0,0,1-3.96,1.757s-.105-1.523-.246-4.089c-.515-9.783-1.453-34.749,1.559-48.785,3.819-17.726,7.615-47.157,7.615-47.157s-2.777-4.686-2.777-6.3c0-1.008,1.957-4.253,3.421-6.537.867-1.371,1.558-2.391,1.558-2.391a7.859,7.859,0,0,0,2.637,3.07c1.534.808,25.037.445,43.126-.07s22.729-1.488,23.561-2.32S180.1,266.9,180.1,266.9s1.359-.585,3.117,2.929S186.926,274.315,184.782,275.3Z"/><path class="l" d="M113.724,381.328a65.625,65.625,0,0,1,17.422-2.683c-.082,1.734-.3,5.4-.586,10.029l-11.973,7.1.867,17a13.6,13.6,0,0,0-5.73,1.828Z"/><path class="l" d="M181.349,380.5v7.253c-4.148-.364-9.724-.645-10.919.316-1.477,1.172-.621,17.281-.106,25.1a11.65,11.65,0,0,0-4.042,1.922c-.328-5.143-1.113-17.48-1.7-26.572-.246-3.983-.468-7.346-.585-9.209,6.795-.82,12.653-1.523,15.922.364C180.423,379.958,180.9,380.227,181.349,380.5Z"/><path class="m" d="M116.653,427.677h-9.185c.937-3.515,4.265-12.642,13.544-12.642.293,0,.574.012.855.023-1.523,1.524-4.464,4.8-5.143,7.956C116.2,425.451,116.279,426.868,116.653,427.677Z"/><path class="m" d="M132.81,430.02v.761c-3.492-.152-14.962-.609-15.254.094-.118.293-.293.879-.5,1.511h-9.877V430.02Z"/><path class="m" d="M176.229,427.677h-13.86c.387-3.386,2.3-12.642,11.693-12.642a12.322,12.322,0,0,1,4.311.738c-2.109,1.676-5.3,4.968-3.819,8.564A17.174,17.174,0,0,0,176.229,427.677Z"/><path class="m" d="M187.9,430.02v1.757c-3.831-.035-13.625-.094-13.86.317-.035.058-.082.163-.152.292H162.264V430.02Z"/><path class="n" d="M184.782,275.3c-1.922.867-3.515,2.355-8.108,2.659a.892.892,0,0,1,.434-.445c1.617-.656,3.737-3.948,1.1-3.292s-66.992,4.686-69.417,3.292-.656-4.757-.656-4.757l-.094-.538c.867-1.371,1.558-2.391,1.558-2.391a7.859,7.859,0,0,0,2.637,3.07c1.534.808,25.037.445,43.126-.07s22.729-1.488,23.561-2.32S180.1,266.9,180.1,266.9s1.359-.585,3.117,2.929S186.926,274.315,184.782,275.3Z"/><path class="n" d="M177.846,292.674s-.024.984-.106,2.694c-6.057,14.423-19.846,42.447-34.55,39.682-19.73-3.714-35.71-48.82-35.71-48.82S115.9,297,119.336,301.32s2.707,1.757,4.464,1.172-9.291-14.727-8.635-18.676c.34-2.05,3.48-2.847,6.456-3.128-2.3.832-3.409,2.484-2.554,5.636,1.956,7.228,16.6,32.511,29.489,33.495S177.846,292.674,177.846,292.674Z"/><path class="n" d="M153.4,363.7s-9.818,5.576-25.342,1.757c-15.524-3.8-7.322,11.576-2.929,11.576,0,0-21.241,5.412-22.694,6.3a29.511,29.511,0,0,1-3.96,1.757s-.105-1.523-.246-4.089c.188-.375.34-.668.445-.843.973-1.664,6.831-2.25,10.931-2.344s4.3-2.05,1.078-7.135-2.835-10.439,5.46-7.615,17.574.4,17.574.4-7.323-.984-16.59-7.322-15.43-21.581-12.5-28.025S124.445,341,136.453,347.645a41.77,41.77,0,0,0,21.031,4.792,14.637,14.637,0,0,1-6.585,1.452c-25.623-.292-37.339-22.846-39.986-19.179C108.288,338.366,126.881,363.555,153.4,363.7Z"/><path class="o" d="M184.827,275.685a9.153,9.153,0,0,1-3.027,1.758,28.99,28.99,0,0,1-4.833,1.22s3.857.244,3.954,1.465-4.051,15.182-4.051,15.182S184.924,278.273,184.827,275.685Z"/><path class="o" d="M179.7,290.038s3.319,49.7,6.737,56.92,3.514,28.313.292,34.562l3.418,2.929s4.686-21.577,1.855-33.293-9.471-66.586-9.471-66.586Z"/><path class="p" d="M182.31,251.316c-.059,2.894-.258,7.088-.7,10.8-.375,3.222-.926,6.081-1.711,7.416-2.343,4.007-7.416,1.852-7.123,1.758s4.78-10.638,4.194-12.794-16.109,4.979-31.832.586-25.377-22.155-25.377-22.155l-.316-2.156c3.831,3.8,21.264,20.468,34.234,22.026C165.978,258.275,178.584,253.039,182.31,251.316Z"/><path class="p" d="M116.044,248.645c-.492,7.51-5.659,8.2-7.029,8-1.207-.176,3.151,13.087,4.182,16.156.129.41.211.633.211.633h-2.636L104.527,255.7l-2.331-6.643c1.172.668,6.936,3.808,7.99,2.226a17.726,17.726,0,0,0,1.957-13.38c-.539-1.968-1.582-5.635-2.742-9.923C111.182,231.481,116.454,242.389,116.044,248.645Z"/><path class="j" d="M135.18,50.056s.269,3.026-1.562,4.161-2.892,2.307-1.281,2.673,16.951.513,16.951.513S137.877,50.69,135.18,50.056Z"/><path class="j" d="M177.53,100.028c.562,1.136,2.565,8.318,4.147,14.27a61.654,61.654,0,0,0-16.789-7.275c-.211-2.215-.832-8.623-1.254-10.369-.187-.773-.843-1.429-2.108-2.05C170.5,96.4,176.862,98.962,177.53,100.028Z"/><path class="j" d="M186,86.461a1.193,1.193,0,0,0,.059,1.664c1.054.984,2.484,2.4,3.714,3.737a1.106,1.106,0,0,0,1.007,1.125,11.386,11.386,0,0,1,1.57,2.155c.094.293-.222,1.547-1.57,2.976a10.21,10.21,0,0,1-10.4,2.648c-.036-.012-.059,0-.094-.012-.117-.374-.235-.7-.34-.984a42.967,42.967,0,0,0-2.636-11.727c-1.921-4.757-7.205-7.5-9.385-8.448a1.172,1.172,0,0,0-.949,2.144c1.922.844,6.561,3.222,8.166,7.182a42.493,42.493,0,0,1,2.145,8.143c-4.417-2.39-13.978-4.815-22.214-5.893a1.157,1.157,0,0,0-1.312,1.007.392.392,0,0,0-.012.118c-1.593-.364-3.421-.727-5.483-1.137-6.432-1.265-15.172-.1-21.159,1.043-3.772.715-6.455,1.429-6.783,1.511a85.275,85.275,0,0,1,10.04-4.569c2.144-.832,4.546-1.676,7.135-2.449,10.041-3.011,24.24,4.827,25.775,5.05s4.253-1.1,3.515-5.565c-.68-4.148-3.89-5.835-11.564-8.764-.585-.211-1.2-.445-1.827-.679a17.627,17.627,0,0,0-3.48-.9,33.747,33.747,0,0,0-12.349.585,44.074,44.074,0,0,0-5.319,1.477c.223-.129,1.805-1.008,4.078-2.133h.011a62.708,62.708,0,0,1,11.634-4.522c7.1-1.757,14.868,3.737,18.16,6.584s10.251,2.929,10.837-1.171,5.272-3.07,1.828-11.341c-2.66-6.374-12.044-8.061-16.2-8.494,7.568-1.863,16.777,1.394,19.425,5.049a20.805,20.805,0,0,1,2.32,5.53c1.6,5,3.608,11.224,10.954,13.216,1.078.293,2.4.843,2.542,1.757.317,1.921-3.315,5.425-6.49,7.733-1.652-1.769-3.363-3.386-3.679-3.691A1.181,1.181,0,0,0,186,86.461Z"/><path class="q" d="M199.884,185.777c-1.359.328-23.268,6.128-34.34,42.166l-15.5-.527-1.64-.059s8.494-33.379,48.363-41.029C197.786,186.117,198.817,185.941,199.884,185.777Z"/><path class="q" d="M200.106,186.5s-11.423,23.285-10.251,41.152l-16.11-.147S177.651,204.316,200.106,186.5Z"/><path class="r" d="M201.082,185.961S225,189.183,239.745,209.1c0,0-9.763-9.861-15.914-11.716,0,0,16.4,13.571,17.672,29.29l12.106.2s-4.2-18.843-15.231-28.411S206.843,185.765,201.082,185.961Z"/><path class="r" d="M222.733,226.478s-1.9-19.917-10.984-28.411c0,0,5.785,20.943,2.05,28.192Z"/><path class="s" d="M164.888,205.858c.375-.363,6.42-6.361,9.923-7.779-.656.562-17.02,17.023-22.081,29.337l-4.326-.059s8.494-33.379,48.363-41.029l-.375.316S176.6,191.237,164.888,205.858Z"/><path class="q" d="M166.642,226.625S157.2,229.114,158,231.6s2.416,3.954.805,3.954-16.182-.366-17.5-1.318-3.515-5.711.586-6.59S166.642,226.625,166.642,226.625Z"/><path class="r" d="M244.334,227.211s5.858.878,6.517,3.441a3.066,3.066,0,0,1-1.172,3.588s5.932,1.245,7.762.44,3.588-4.54.659-6S245.872,226.918,244.334,227.211Z"/><path class="s" d="M192.784,233.8l11.569.146s-4.686,6.81-6.077,7.03S192.784,233.8,192.784,233.8Z"/><path class="s" d="M216.435,236.144c1.465.073,9.007,0,9.007,0s-5.785,4.32-8.128,4.467-3.588-.513-3.442-1.1A24.966,24.966,0,0,1,216.435,236.144Z"/><path d="M138.522,143.37a1.171,1.171,0,0,0,.106,1.653c.882.777,5.1,4.33,8.357,4.33a3.793,3.793,0,0,0,.953-.115c3.136-.813,6.972-4.3,7.134-4.444a1.171,1.171,0,0,0-1.581-1.729c-.984.9-4.007,3.351-6.141,3.9-1.57.4-5.142-1.922-7.175-3.706A1.171,1.171,0,0,0,138.522,143.37Z"/><path d="M150.935,76.8c.028,0,2.775.323,5.48.843a1.2,1.2,0,0,0,.222.021,1.171,1.171,0,0,0,.22-2.322c-2.793-.537-5.537-.856-5.653-.869a1.171,1.171,0,0,0-.269,2.327Z"/><path d="M173.076,149.806a2.657,2.657,0,0,1,.13-.357,1.172,1.172,0,0,0-2.1-1.049,4.912,4.912,0,0,0-.262.68c-.226.694-.481,1.479-3.916,1.528-5.4.076-28.447,4.721-33.231,5.885-4.675,1.137-7.287-.3-7.41-.373a1.172,1.172,0,0,0-1.191,2.019,10.719,10.719,0,0,0,5.186,1.128,16.782,16.782,0,0,0,3.969-.5c5.395-1.313,27.793-5.75,32.709-5.819C171.68,152.884,172.569,151.361,173.076,149.806Z"/><path d="M130.159,126.832a1.168,1.168,0,0,0,.877-.4c.031-.034,3-3.355,6.884-3.316a6.1,6.1,0,0,1,5.2,2.68,1.172,1.172,0,1,0,2.048-1.139,8.425,8.425,0,0,0-7.215-3.885h-.143c-4.833,0-8.381,3.937-8.53,4.106a1.173,1.173,0,0,0,.875,1.95Z"/><path d="M154.739,119.888c1.22-1.556,3.749-3.979,5.433-3.979l.083,0c2.415.118,3.51,4.4,3.627,4.884a1.172,1.172,0,1,0,2.279-.547c-.364-1.518-1.858-6.485-5.792-6.678-3.481-.143-7.072,4.359-7.476,4.874a1.172,1.172,0,0,0,1.846,1.444Z"/><path d="M255.922,225.933h-.97c-1.347-6.114-10.429-39.1-49.4-41.5v-4a5.563,5.563,0,1,0-11.126,0v4.179c-1.751.159-3.457.366-5.091.645l-14.681-4.2c-.091-1.938-.409-6.033-1.516-7.728a3.8,3.8,0,0,0-3.181-1.759c12.568-4.153,19.558-15.863,18.259-31.269,3.763-2.711,9.475-10.6,6.823-15.818a4.467,4.467,0,0,0-3.013-2.461c-2.063-.474-4.338.508-5.784,1.333a29.472,29.472,0,0,0-1.52-6.683c-.357-1.368-2.23-8.523-3.658-13.372a14.226,14.226,0,0,0,2.474.229,12.32,12.32,0,0,0,9.295-4.2c1.59-1.855,2.229-3.814,1.666-5.115a11.387,11.387,0,0,0-1.6-2.344c2.7-1.981,7.836-6.27,7.25-9.88-.282-1.727-1.708-2.952-4.241-3.64-6.126-1.665-7.76-6.751-9.339-11.671a22.29,22.29,0,0,0-2.654-6.193c-3.757-5.164-16.056-8.6-24.517-5.1a20.342,20.342,0,0,1-5.3,1.205.99.99,0,0,0-.124-.067,79.91,79.91,0,0,1-12.863-5.619c-8.872-4.508-17.252-8.765-24-2.808-5.352,4.723-4.117,10.2-3.125,14.594.935,4.145,1.373,6.787-1.3,8.791-7.7,5.774-7.825,8.774-6.306,13.8a9.009,9.009,0,0,0,4.641,5.232,12.567,12.567,0,0,0,5.726,1.432c.229,0,.447-.033.671-.048-.939,2.6-1.474,4.654-1.525,4.852a1.1,1.1,0,0,0-.009.19c-3.042,4.941-4.667,16.716-5.073,20.018-.3,1.282-1.084,4.775-1.837,9.371a6.1,6.1,0,0,0-2.652-1.21,6.686,6.686,0,0,0-5.4,1.692,5.176,5.176,0,0,0-2.015,4.524c.277,4.5,5.367,9.556,8.422,11.626-.155,7.483.7,14.836,3.768,19.454,2.887,4.344,8.025,7.193,14.162,8.993l-.048.5a5.723,5.723,0,0,0-4.117,3.032c-.863,2.015-.956,6.586-.956,8.426C89.695,199.332,89.1,200.127,88.9,200.389c-.839,1.119-5.78,17.95-5.023,20.976.117.79-.676,5.209-1.443,9.483-2.759,15.366-4.8,28.359-1.823,31.717,2.682,3.027,12.127,5.594,28.07,7.634-2.032,2.876-6.333,9.639-4.008,12.429.275.329.7.927,1.227,1.686-.415,3.339-3.2,25.5-5.935,41.89-4.24,25.442-2.856,59.289-2.842,59.629a1.172,1.172,0,0,0,1.687,1,97.391,97.391,0,0,1,12.565-4.814v34.125a1.078,1.078,0,0,0,.03.15c-5.228,4.676-6.542,12.254-6.56,12.365,0,.03.008.059,0,.088s-.02.065-.02.1v4.709A1.171,1.171,0,0,0,106,434.73h27.975a1.172,1.172,0,0,0,1.172-1.172v-4.709l0-.017c0-.005,0-.01,0-.015,0-.1-.257-6.876-4.144-11.61,1.8-26.186,2.384-35.231,2.442-38.491a32.688,32.688,0,0,1,4.852.646c8.184,1.759,16.165,1.063,23.367.22.46,7.042,2.167,33.826,2.408,37.619-3.891,4.734-4.146,11.511-4.149,11.616,0,.006,0,.011,0,.017l0,.015v4.709a1.171,1.171,0,0,0,1.172,1.172h27.974a1.171,1.171,0,0,0,1.172-1.172v-4.709c0-.035-.017-.065-.02-.1s.01-.06,0-.09c-.018-.111-1.332-7.69-6.561-12.366a1.064,1.064,0,0,0,.03-.149V381.9a52.99,52.99,0,0,1,5.469,3.634,1.173,1.173,0,0,0,1.847-.447c.258-.633,6.295-15.7,1.964-32.3-4.043-15.5-8.6-64.3-9-68.569a66.469,66.469,0,0,0,2.845-7.021c.928-3.354-3.328-9.484-4.853-11.537,1.791-6.511,2.476-15.486,2.652-18.241l.3.1c1.132,1.787,6.245,8.779,17.534,9.769.735.064,1.438.1,2.115.1,9.619,0,13.438-6.145,14.362-7.971.122.018.231.032.359.052a14.025,14.025,0,0,0,2.164.181,8.384,8.384,0,0,0,6.092-2.547,10.6,10.6,0,0,1,4.239-2.483l.735-.21c4.043-1.159,7.536-2.159,8.531-4.6a4.031,4.031,0,0,0-.108-3.065h14.977a5.4,5.4,0,0,0,0-10.8ZM191.506,124.31a2.121,2.121,0,0,1,1.445,1.238c1.672,3.292-1.867,9.05-4.994,11.942-.515-4.936-.958-8.705-1.351-11.6C187.714,125.145,189.938,123.95,191.506,124.31Zm-84.074,15.808c-2.644-2.163-6.008-5.966-6.19-8.923a2.814,2.814,0,0,1,1.14-2.551,4.492,4.492,0,0,1,3.517-1.216,4.583,4.583,0,0,1,2.638,1.744C108.052,132.54,107.632,136.3,107.432,140.118Zm89.338,40.317a3.22,3.22,0,1,1,6.44,0v3.919c-.73-.021-1.442-.062-2.193-.062q-2.178,0-4.247.12Zm4.247,6.2c1.113,0,2.184.042,3.25.089a1.115,1.115,0,0,0,.115.023c.031,0,.057-.015.087-.017,37.713,1.767,46.573,32.241,48.1,39.2H147.48C149.452,218.645,160.432,186.635,201.017,186.635Zm-30.951-12.711a1.48,1.48,0,0,1,1.112.691,8.629,8.629,0,0,1,.773,2.846,22.761,22.761,0,0,1-3.984,2.606,37,37,0,0,1-5.8,2.129c-.564.167-.995.3-1.228.388-1.725.675-2.062,7.341-2.123,10.674-2.307.41-12.6,2.25-22.81,4.309-23.721,4.783-23.932,6.008-24.057,6.74-.142.828.654,4.5,2.467,12.735,1.079,4.895,2.422,10.989,3.692,17.258,2.81,13.863,4.433,28.641,4.22,38.172l-1.692-.017c.721-12.393-4.65-37.865-8.241-54.894-1.5-7.106-2.682-12.719-2.743-14.207.96-2.914,25-8.176,46.728-11.379a1.172,1.172,0,0,0,.991-1.312c-.425-3.255-.218-8.177,1.273-8.561a99.91,99.91,0,0,0,11.006-4.351,1.172,1.172,0,0,0,.679-1.18Zm-15.143,15.9c-2.341.359-8.116,1.27-14.8,2.5.283-3.988.352-11.6-3.1-12.488a88.72,88.72,0,0,1-9.856-3.87l.387-3.938a85.042,85.042,0,0,0,19.6,2.051,124.835,124.835,0,0,0,17.4-1.226c1.029-.149,2.029-.344,3-.578l.363,3.691a88.49,88.49,0,0,1-9.856,3.87C154.552,180.737,154.675,186.965,154.923,189.825Zm29.021-65.984c-2.014-1.76-4.568-3.6-5.786-4.449l-.185-4.579a47.182,47.182,0,0,1,4.682,3.009A33.39,33.39,0,0,1,183.944,123.841ZM118.436,97.4c3.472-3.869,11.463-6.162,11.543-6.185a1.171,1.171,0,0,0-.636-2.255,38,38,0,0,0-10.024,4.6c.272-.792.591-1.66.946-2.551a1.131,1.131,0,0,0,.121-.3c1.2-2.961,2.834-6.118,4.753-7.626,4.23-3.323,11.556-5.006,11.63-5.023a1.172,1.172,0,0,0-.515-2.286c-.321.073-7.912,1.813-12.562,5.467-2.192,1.722-3.988,5.047-5.306,8.182a9.658,9.658,0,0,1-6.279-.982,6.7,6.7,0,0,1-3.484-3.835c-1.221-4.039-1.469-6.044,5.469-11.248,4.021-3.015,3.084-7.166,2.179-11.18-.988-4.381-1.922-8.518,2.389-12.321,5.559-4.9,12.9-1.177,21.392,3.14,2.648,1.345,5.352,2.718,8.128,3.9a125.691,125.691,0,0,1-15.888-1.154,1.171,1.171,0,1,0-.34,2.318c.818.12,20.111,2.9,28.343-.5,7.886-3.262,18.791.278,21.727,4.317A20.856,20.856,0,0,1,184.34,67.4c1.6,5,3.6,11.217,10.954,13.215,1.078.292,2.393.835,2.543,1.755.313,1.923-3.321,5.423-6.492,7.736-1.649-1.778-3.36-3.394-3.685-3.7a1.171,1.171,0,0,0-1.6,1.71c1.057.992,2.483,2.4,3.718,3.744a1.129,1.129,0,0,0,.175.618,1.155,1.155,0,0,0,.827.5,10.838,10.838,0,0,1,1.568,2.162c.093.285-.225,1.543-1.564,2.965a10.211,10.211,0,0,1-10.407,2.649c-.031-.008-.061,0-.092,0-.122-.375-.234-.705-.336-.986a43.453,43.453,0,0,0-2.636-11.732c-1.927-4.758-7.212-7.493-9.395-8.448a1.171,1.171,0,0,0-.938,2.147c1.92.84,6.558,3.221,8.161,7.181a42.365,42.365,0,0,1,2.148,8.15c-4.417-2.4-13.987-4.826-22.214-5.9a1.171,1.171,0,0,0-.3,2.323c12.4,1.618,21.925,5.209,22.76,6.535.566,1.13,2.56,8.314,4.143,14.274-13.122-8.41-32.341-11.925-47.979-8.557-10.486,2.257-16.993,6.43-20.222,9.026C114.321,109.056,116.082,100.02,118.436,97.4Zm-5.561,21.073a27.053,27.053,0,0,1,4.462-3.593l-.482,6.7c-1.28,1.3-3.728,3.83-5.708,6.156C111.788,123.622,112.478,120.274,112.875,118.47Zm.17,42.652c-4.164-6.264-3.791-18.582-2.563-28.614.561-1.294,4.67-5.887,8.342-9.591a1.174,1.174,0,0,0,.337-.741l.634-8.805a50.779,50.779,0,0,1,14.394-5.335c13.256-2.852,29.159-.575,41.388,5.517l.263,6.517a1.173,1.173,0,0,0,.506.917c3,2.065,7.459,5.5,8.143,6.773.409,3.189.852,7.147,1.346,12.006,1.711,16.8-6.575,28.587-21.624,30.765C144.481,173.386,120.049,171.659,113.045,161.122Zm10.2,14.741a2.9,2.9,0,0,1,1.714-1.428l-.21,2.136a1.169,1.169,0,0,0,.679,1.18,99.741,99.741,0,0,0,11.006,4.351c1.162.3,1.745,5.268,1.3,10.662q-1.17.222-2.358.453c.328-3.782.511-9.948-1.742-10.3-1.608-.252-7.666-3.769-10.755-5.639A6.669,6.669,0,0,1,123.244,175.863ZM100,217.346a1.172,1.172,0,0,0-2.33.248c.009.077.791,7.729-1.263,11.642a4.778,4.778,0,0,0-.28.668c-1.828-.911-4.336-3.473-5.695-5.144a1.172,1.172,0,1,0-1.819,1.478c.437.537,4.012,4.845,7.115,6.031-.241,6.483,4.5,17.084,4.564,17.2.617,1.217,4.419,10.512,7.558,18.253-19.923-2.635-24.457-5.562-25.479-6.714-2.466-2.782.684-20.325,2.376-29.749,1.246-6.943,1.661-9.46,1.417-10.436-.5-2.018,3.69-17.092,4.581-18.958,1.864-1.3,19.481-10.659,31.115-16.759a1.172,1.172,0,0,0,.627-1.057,49.732,49.732,0,0,1,.226-5.508c2.778,1.673,8.859,5.235,10.747,5.53.846.133,1.159,4.477.722,9.379q-1.068.211-2.138.43c-24.882,5.1-24.78,7.961-24.725,9.5.062,1.746,1.2,7.163,2.786,14.663,3.362,15.94,8.927,42.338,8.186,54.379-2.863-.043-5-.092-6.06-.119-1.579-3.912-8.9-22.021-9.848-23.892-1.351-2.663-5.751-14.565-3.9-18.088C100.862,225.78,100.032,217.689,100,217.346Zm32.811,215.04H107.175V430.02h25.631Zm-.1-4.709h-25.24c.937-3.519,4.264-12.644,13.539-12.644a10.2,10.2,0,0,1,7.9,3.305l.026.031C131.66,421.37,132.475,425.611,132.711,427.677ZM128.8,415.1a12.669,12.669,0,0,0-7.791-2.4,14.121,14.121,0,0,0-7.29,1.909v-33.27a65.362,65.362,0,0,1,17.427-2.679C130.942,383.241,129.733,401.471,128.8,415.1ZM164,379.3c6.793-.821,12.659-1.528,15.924.357.5.291.978.567,1.433.835v34.1a14.122,14.122,0,0,0-7.289-1.909,12.673,12.673,0,0,0-7.777,2.395C165.815,407.672,164.4,385.415,164,379.3Zm23.9,53.082H162.268V430.02H187.9Zm-.283-4.709H162.363c.387-3.388,2.3-12.644,11.7-12.644S186.707,424.142,187.616,427.677Zm-3.047-151.108c-.869,3.14-6.985,16.007-8.642,18.848a1.172,1.172,0,0,0,2.025,1.181c.768-1.317,2.4-4.6,4.075-8.139,1.245,13,5.1,51.174,8.682,64.915,3.384,12.965.01,25.279-1.352,29.385-1.347-.941-3.869-2.592-8.264-5.128-3.945-2.276-10.176-1.525-17.39-.652-7.6.919-16.224,1.959-24.912.093-15-3.225-33.773,4.389-39.385,6.9-.218-7.254-.776-35.49,2.873-57.387,2.333-14,4.7-32.169,5.614-39.33l.174.259c3.757,5.61,9.434,14.087,13.186,17.109a1.171,1.171,0,1,0,1.471-1.823c-3.475-2.8-9.033-11.1-12.711-16.589-1.6-2.39-2.864-4.277-3.538-5.086-.784-.941,1.013-4.871,3.369-8.465.171.426.338.84.5,1.231a1.174,1.174,0,0,0,1.052.733c.776.023,8.214.238,18.1.238,16.153,0,38.842-.573,49.709-3.488a1.165,1.165,0,0,0,.685-.5,14,14,0,0,0,1.182-2.438C183.054,271.364,184.994,275.034,184.569,276.569Zm-6.427-7.336c-12.123,3.078-38.963,3.371-54.644,3.249.211-9.617-1.42-24.485-4.243-38.416-1.273-6.278-2.616-12.376-3.7-17.276-1.329-6.035-2.482-11.27-2.462-12.213,1.858-1.854,29.354-7.255,46.4-10.249a.586.586,0,0,0,.484-.57c.058-5.074.7-9.693,1.386-10.083.213-.084.613-.2,1.135-.356a37.9,37.9,0,0,0,5.991-2.2,23.033,23.033,0,0,0,3.637-2.3c.12,1.112.193,2.247.215,3.168a1.174,1.174,0,0,0,.848,1.1l11.271,3.223c-29.4,7.574-37.972,34.336-39.39,39.63h-1.228a5.186,5.186,0,0,0,0,10.372h16.522a3.6,3.6,0,0,0-1.134,3.783c.4,1.022,1.566,2.254,4.872,2.329,6.027.136,12.782,2.4,18.221,4.23C182.223,248.413,181.249,263.7,178.142,269.233Zm24.519-14.286a21.29,21.29,0,0,1-13.841-6.286,17.06,17.06,0,0,0,1.928.373,15.666,15.666,0,0,0,1.724.114,18.607,18.607,0,0,0,10.428,4.71q.393.028.779.028c5.31,0,9.522-3.956,10.462-4.911.67.008,1.406.039,2.3.121C215.176,251.212,211.419,255.72,202.661,254.947Zm-6.769-6.115c.368-.064.734-.13,1.093-.2a21.729,21.729,0,0,1,8.494-.247,43.722,43.722,0,0,0,5.076.56,11.753,11.753,0,0,1-7.481,2.575A15.2,15.2,0,0,1,195.892,248.832Zm42.99-9.918c-.564,1.386-3.838,2.324-7.005,3.231l-.74.212a12.715,12.715,0,0,0-5.107,2.949c-1.634,1.388-2.815,2.394-6.376,1.835a35.632,35.632,0,0,0-6.776-.509,35.481,35.481,0,0,1-7.031-.559,23.979,23.979,0,0,0-9.3.258,16.343,16.343,0,0,1-5.515.378,49.464,49.464,0,0,1-7.91-2.265c-5.6-1.883-12.564-4.226-18.967-4.37-1.923-.043-2.627-.545-2.74-.836-.1-.25.1-.81.77-1.451a8.279,8.279,0,0,1,2.509-1.561.987.987,0,0,0,.12-.052c3.331-1.357,8.762-1.774,15.329,1.06a71.444,71.444,0,0,1,6.26,5.879,1.172,1.172,0,0,0,1.7-1.616,67.374,67.374,0,0,0-6.489-6.037,1.161,1.161,0,0,0-.192-.17c.023-.194.366-.83,1.414-1.5a7.062,7.062,0,0,1,6.8-.488c2.462,1.184,3.139,2.922,3.793,4.6.666,1.71,1.418,3.647,4.115,3.86,3.681.289,6.457-4.082,8.494-7.271a17.345,17.345,0,0,1,1.521-2.183c.679-.672,4.326-1.734,6.723-.913a2.158,2.158,0,0,1,1.676,1.864c.367,2.685-1.458,4.521-3.223,6.3a15.026,15.026,0,0,0-2.293,2.683,1.172,1.172,0,0,0,2.009,1.206,12.989,12.989,0,0,1,1.876-2.166,10.514,10.514,0,0,0,9.753-2.25c3.154-2.639,8.4-4.306,11.694-3.713a3.647,3.647,0,0,1,2.7,1.648C239.175,238.194,238.954,238.737,238.882,238.914Zm17.04-4.524H239.266a6.6,6.6,0,0,0-3.079-1.382c-4.027-.721-9.874,1.094-13.612,4.224a8.312,8.312,0,0,1-6.37,2.033,7.886,7.886,0,0,0,2.073-6.323,4.53,4.53,0,0,0-3.243-3.767c-3-1.025-7.606-.034-9.125,1.465a16.669,16.669,0,0,0-1.848,2.589c-1.523,2.384-4.061,6.407-6.335,6.195-1.171-.092-1.458-.682-2.116-2.373a9.481,9.481,0,0,0-4.961-5.864c-4.554-2.188-9.629.092-11.127,2.624a3.448,3.448,0,0,0-.262.557c-6.129-2.2-11.541-1.911-15.267-.406h-20.15a2.843,2.843,0,0,1,0-5.686H255.922a3.057,3.057,0,1,1,0,6.114Z"/><path d="M136.993,127.765c-1.8,0-3.265,2.8-3.265,6.262s1.462,6.263,3.265,6.263,3.265-2.8,3.265-6.263S138.8,127.765,136.993,127.765Z"/><path d="M158.545,127.765c-1.8,0-3.265,2.8-3.265,6.262s1.462,6.263,3.265,6.263,3.265-2.8,3.265-6.263S160.348,127.765,158.545,127.765Z"/><path d="M125.506,208.133a4.276,4.276,0,1,0-4.276,4.276A4.281,4.281,0,0,0,125.506,208.133Zm-4.276,1.933a1.933,1.933,0,1,1,1.932-1.933A1.935,1.935,0,0,1,121.23,210.066Z"/><path d="M130.262,231.078a4.276,4.276,0,1,0-4.276,4.277A4.281,4.281,0,0,0,130.262,231.078Zm-6.209,0a1.933,1.933,0,1,1,1.933,1.933A1.936,1.936,0,0,1,124.053,231.078Z"/><path d="M128.928,251.434a4.276,4.276,0,1,0,4.276,4.276A4.281,4.281,0,0,0,128.928,251.434Zm0,6.208a1.932,1.932,0,1,1,1.933-1.932A1.935,1.935,0,0,1,128.928,257.642Z"/><path class="r" d="M136.584,130.7a1.647,1.647,0,1,1-1.648-1.647A1.648,1.648,0,0,1,136.584,130.7Z"/><path class="r" d="M158.515,131.176a1.648,1.648,0,1,1-1.648-1.647A1.648,1.648,0,0,1,158.515,131.176Z"/><path class="t" d="M134.7,135.9s.458,2.673,2.16,2.893,2.49-3.057,2.49-3.057-1.245,2.544-2.38,2.361S134.7,135.9,134.7,135.9Z"/><path class="t" d="M156.226,135.9s.458,2.673,2.16,2.893,2.49-3.057,2.49-3.057-1.245,2.544-2.38,2.361S156.226,135.9,156.226,135.9Z"/><ellipse class="u" cx="73.5" cy="14" rx="73.5" ry="14" transform="translate(74 418)"/></g></svg>